<svg xmlns="http://www.w3.org/2000/svg" width="86" height="86" viewBox="0 0 86 86">
    <defs>
        <clipPath id="yyqwpax8aa">
            <path data-name="사각형 153870" transform="translate(380.5 1838.5)" style="fill:none" d="M0 0h86v86H0z"/>
        </clipPath>
    </defs>
    <g data-name="그룹 133215">
        <g data-name="그룹 133191">
            <g data-name="그룹 133190" style="clip-path:url(#yyqwpax8aa)" transform="translate(-380.5 -1838.5)">
                <g data-name="그룹 133189">
                    <g data-name="그룹 133188">
                        <path data-name="패스 241334" d="M458.055 1915.81h-70.11a.893.893 0 0 1-.892-.892v-42.4a3.238 3.238 0 0 1 3.235-3.235h14.135a.892.892 0 0 1 .892.892v22.133h34.256a.893.893 0 0 1 .892.893v1.817h2.229V1891.352a4.543 4.543 0 0 1 1.56-3.337 4.061 4.061 0 0 0-2.631-7.115h-.045a.893.893 0 0 1-.892-.893v-9.834a.892.892 0 0 1 .892-.892h14.135a3.238 3.238 0 0 1 3.235 3.235v42.4a.893.893 0 0 1-.891.894zm-69.217-1.785h68.324v-41.505a1.452 1.452 0 0 0-1.45-1.451H442.47v8.117a5.845 5.845 0 0 1 2.959 10.174 2.756 2.756 0 0 0-.951 2.021v4.532a.892.892 0 0 1-.892.892h-4.013a.893.893 0 0 1-.893-.892v-1.818h-34.257a.893.893 0 0 1-.893-.892v-22.134h-13.242a1.452 1.452 0 0 0-1.45 1.451z" style="fill:#58595a"/>
                        <path data-name="패스 241335" d="M454.81 1912.565h-63.62a.893.893 0 0 1-.892-.892v-38.251a.893.893 0 0 1 .892-.893h13.233a.893.893 0 0 1 .892.893v18.888h34.256a.893.893 0 0 1 .892.893v1.817h2.229V1891.354a4.543 4.543 0 0 1 1.56-3.337 4.061 4.061 0 0 0-2.631-7.115h-.045a.893.893 0 0 1-.892-.893v-6.589a.893.893 0 0 1 .892-.893h13.234a.893.893 0 0 1 .892.893v38.251a.893.893 0 0 1-.892.894zm-62.727-1.785h61.834v-36.466H442.47v4.872a5.845 5.845 0 0 1 2.959 10.174 2.756 2.756 0 0 0-.951 2.021v4.532a.892.892 0 0 1-.892.892h-4.013a.893.893 0 0 1-.893-.892v-1.818h-34.257a.893.893 0 0 1-.893-.892v-18.889h-11.447z" style="fill:#58595a"/>
                        <path data-name="패스 241336" d="M461.776 1921h-77.552a2.9 2.9 0 0 1-2.9-2.9v-3.182a.893.893 0 0 1 .893-.893h81.568a.893.893 0 0 1 .893.893v3.182a2.9 2.9 0 0 1-2.902 2.9zm-78.668-5.19v2.29a1.116 1.116 0 0 0 1.116 1.115h77.552a1.116 1.116 0 0 0 1.116-1.115v-2.29z" style="fill:#58595a"/>
                        <path data-name="패스 241337" d="M432.16 1918.405H413.9a2.051 2.051 0 0 1-2.049-2.049v-1.438a.893.893 0 0 1 .893-.893h20.575a.893.893 0 0 1 .892.893v1.438a2.051 2.051 0 0 1-2.051 2.049zm-18.526-2.595v.546a.264.264 0 0 0 .264.264h18.262a.264.264 0 0 0 .264-.264v-.546z" style="fill:#58595a"/>
                        <path data-name="패스 241338" d="M451.964 1866.36a4.359 4.359 0 0 1-4.354-4.354v-10.922a.891.891 0 0 1 .892-.892h6.925a.892.892 0 0 1 .892.892v10.922a4.359 4.359 0 0 1-4.355 4.354zm-2.57-14.383v10.029a2.57 2.57 0 1 0 5.14 0v-10.029z" style="fill:#a36a1a"/>
                        <path data-name="패스 241339" d="M451.964 1866.36h-10.387a.892.892 0 0 1-.892-.892v-18.113a4.355 4.355 0 1 1 8.709 0v14.651a2.573 2.573 0 0 0 2.57 2.57.892.892 0 1 1 0 1.784zm-9.494-1.784h5.981a4.331 4.331 0 0 1-.841-2.57v-14.651a2.57 2.57 0 0 0-5.14 0z" style="fill:#a36a1a"/>
                        <path data-name="패스 241340" d="M428.675 1852.448h-11.35a.892.892 0 0 1 0-1.784h11.35a.892.892 0 0 1 0 1.784z" style="fill:#a36a1a"/>
                        <path data-name="패스 241341" d="M433.531 1857.871h-21.062a.892.892 0 1 1 0-1.785h21.062a.892.892 0 1 1 0 1.785z" style="fill:#a36a1a"/>
                        <path data-name="패스 241342" d="M433.531 1863.47h-21.062a.892.892 0 1 1 0-1.785h21.062a.892.892 0 1 1 0 1.785z" style="fill:#a36a1a"/>
                        <path data-name="패스 241343" d="M433.531 1869.069h-21.062a.892.892 0 1 1 0-1.784h21.062a.892.892 0 1 1 0 1.784z" style="fill:#a36a1a"/>
                        <path data-name="패스 241344" d="M423 1888.738a7.235 7.235 0 1 1 7.235-7.235 7.243 7.243 0 0 1-7.235 7.235zm0-12.685a5.451 5.451 0 1 0 5.45 5.45 5.456 5.456 0 0 0-5.45-5.45z" style="fill:#a36a1a"/>
                        <path data-name="패스 241345" d="M420.014 1882.4a.893.893 0 0 1-.893-.893 3.883 3.883 0 0 1 3.879-3.878.892.892 0 0 1 0 1.784 2.1 2.1 0 0 0-2.094 2.094.893.893 0 0 1-.892.893z" style="fill:#a36a1a"/>
                        <path data-name="패스 241346" d="M423 1885.382a.892.892 0 0 1 0-1.785 2.1 2.1 0 0 0 2.094-2.094.893.893 0 0 1 1.785 0 3.883 3.883 0 0 1-3.879 3.879z" style="fill:#a36a1a"/>
                        <path data-name="패스 241347" d="M449.259 1901.274H433.9a.892.892 0 0 1-.893-.892v-2.6a2.768 2.768 0 0 1 2.765-2.765h11.619a2.767 2.767 0 0 1 2.764 2.765v2.6a.892.892 0 0 1-.896.892zm-14.471-1.784h13.579v-1.7a.981.981 0 0 0-.98-.98h-11.619a.981.981 0 0 0-.98.98z" style="fill:#a36a1a"/>
                        <path data-name="패스 241348" d="M443.584 1896.805h-4.013a.893.893 0 0 1-.893-.892V1891.377a2.8 2.8 0 0 0-.973-2.038 5.845 5.845 0 0 1 3.875-10.223h.063a5.845 5.845 0 0 1 3.787 10.242 2.756 2.756 0 0 0-.951 2.021v4.532a.892.892 0 0 1-.895.894zm-3.121-1.785h2.229V1891.354a4.543 4.543 0 0 1 1.56-3.337 4.061 4.061 0 0 0-2.631-7.115h-.043a4.06 4.06 0 0 0-2.692 7.1 4.6 4.6 0 0 1 1.575 3.351v.16z" style="fill:#a36a1a"/>
                        <path data-name="패스 241349" d="M439.571 1894.095h-35.148a.893.893 0 0 1-.893-.892v-45.848a4.36 4.36 0 0 1 4.355-4.355h37.155a.893.893 0 0 1 0 1.785 2.573 2.573 0 0 0-2.57 2.57v32.656a.894.894 0 0 1-.892.893 4.094 4.094 0 0 0-4.059 3.909 4.052 4.052 0 0 0 1.368 3.191 4.593 4.593 0 0 1 1.575 3.351V1893.203a.893.893 0 0 1-.891.892zm-34.256-1.785h33.363v-.936a2.8 2.8 0 0 0-.973-2.038 5.829 5.829 0 0 1-1.968-4.593 5.9 5.9 0 0 1 4.949-5.559v-31.834a4.333 4.333 0 0 1 .841-2.57h-33.642a2.573 2.573 0 0 0-2.57 2.57z" style="fill:#a36a1a"/>
                    </g>
                </g>
            </g>
        </g>
    </g>
</svg>
