<svg xmlns="http://www.w3.org/2000/svg" width="86" height="86" viewBox="0 0 86 86">
    <defs>
        <clipPath id="tbmbmfkgea">
            <path data-name="사각형 153878" transform="translate(793.5 1678.5)" style="fill:none" d="M0 0h86v86H0z"/>
        </clipPath>
    </defs>
    <g data-name="그룹 133196">
        <g data-name="그룹 133208">
            <g data-name="그룹 133204" style="clip-path:url(#tbmbmfkgea)" transform="translate(-793.5 -1678.5)">
                <path data-name="패스 241363" d="M869.893 1740.569V1700.3a3.5 3.5 0 0 0-3.5-3.5h-61.346a3.5 3.5 0 0 0-3.5 3.5v40.27" style="stroke-linecap:round;stroke:#58595a;stroke-miterlimit:10;stroke-width:2px;fill:none"/>
                <path data-name="패스 241364" d="M873.206 1747.691h-74.717a2.8 2.8 0 0 1-2.794-2.794v-3.066a.86.86 0 0 1 .86-.86h78.585a.86.86 0 0 1 .86.86v3.066a2.8 2.8 0 0 1-2.794 2.794zm-75.792-5v2.206a1.077 1.077 0 0 0 1.075 1.075h74.717a1.077 1.077 0 0 0 1.075-1.075v-2.206z" style="fill:#58595a"/>
                <path data-name="패스 241365" d="M844.673 1745.191h-17.595a1.975 1.975 0 0 1-1.973-1.974v-1.386a.86.86 0 0 1 .859-.86h19.823a.859.859 0 0 1 .859.86v1.386a1.975 1.975 0 0 1-1.973 1.974zm-17.849-2.5v.526a.254.254 0 0 0 .254.254h17.595a.254.254 0 0 0 .254-.254v-.526z" style="fill:#58595a"/>
                <rect data-name="사각형 153876" width="59.733" height="37.574" rx=".992" transform="translate(806.128 1700.814)" style="stroke-linecap:round;stroke:#58595a;stroke-miterlimit:10;stroke-width:2px;fill:none"/>
                <g data-name="그룹 133203">
                    <path data-name="패스 241366" d="M840.135 1732.572a25.97 25.97 0 0 1-3.4 2c-.685-.178-12.153-6.9-12.153-11.478v-12.829c3.429 0 10.953-3.07 12.153-4.726 1.2 1.656 8.725 4.726 12.154 4.726v4.051" style="stroke:#a36a1a;stroke-linejoin:round;stroke-width:1.7px;stroke-linecap:round;fill:none"/>
                    <rect data-name="사각형 153877" width="10.803" height="8.102" rx="1" transform="translate(841.466 1722.417)" style="stroke:#a36a1a;stroke-linejoin:round;stroke-width:1.7px;stroke-linecap:round;fill:none"/>
                    <path data-name="패스 241367" d="M850.243 1722.417v-2.7a3.376 3.376 0 0 0-6.752 0v2.7" style="stroke:#a36a1a;stroke-linejoin:round;stroke-width:1.7px;stroke-linecap:round;fill:none"/>
                    <path data-name="선 5605" transform="translate(846.867 1725.793)" style="stroke:#a36a1a;stroke-linejoin:round;stroke-width:1.7px;stroke-linecap:round;fill:none" d="M0 0v1.35"/>
                    <path data-name="패스 241368" d="M839.037 1729.2a17.642 17.642 0 0 1-2.3 1.342c-.495-.129-8.777-4.984-8.777-8.29v-5.865" style="stroke:#a36a1a;stroke-linejoin:round;stroke-width:1.7px;stroke-linecap:round;fill:none"/>
                    <path data-name="패스 241369" d="M831.42 1712.277c2.328-.753 4.764-1.941 5.319-2.708.867 1.2 6.3 3.414 8.778 3.414v1.373" style="stroke:#a36a1a;stroke-linejoin:round;stroke-width:1.7px;stroke-linecap:round;fill:none"/>
                </g>
            </g>
        </g>
    </g>
</svg>
